<?xml version="1.0" standalone="no"?>
<!DOCTYPE svg PUBLIC "-//W3C//DTD SVG 20010904//EN"
 "http://www.w3.org/TR/2001/REC-SVG-20010904/DTD/svg10.dtd">
<svg version="1.0" xmlns="http://www.w3.org/2000/svg"
 width="53.87" height="43.61" viewBox="0 0 964.000000 1280.000000"
 preserveAspectRatio="xMidYMid meet">
<g transform="translate(0.000000,1280.000000) scale(0.100000,-0.100000)"
fill="#4caf50" stroke="none">
<path d="M4789 12796 c-2 -2 -49 -9 -104 -16 -216 -25 -510 -91 -810 -180
-163 -48 -166 -49 -208 -33 -57 21 -218 28 -290 13 -182 -37 -338 -185 -392
-373 -9 -31 -36 -99 -60 -150 -57 -124 -109 -289 -130 -416 -23 -136 -16 -380
13 -491 38 -143 96 -274 166 -379 20 -29 36 -58 36 -63 0 -6 -42 -55 -94 -108
-224 -233 -423 -557 -561 -910 -26 -69 -53 -131 -59 -137 -26 -29 -394 59
-618 148 -43 17 -78 36 -78 43 0 6 7 34 15 61 51 167 14 470 -96 779 -21 61
-39 117 -39 124 0 7 11 28 24 45 64 85 59 205 -12 287 -48 57 -98 80 -172 80
-141 0 -234 -91 -234 -230 0 -104 50 -178 151 -221 l43 -18 0 -78 c-1 -163
-35 -305 -86 -360 -25 -27 -39 -33 -71 -33 -84 0 -169 69 -375 303 -79 89
-170 189 -204 222 -50 49 -62 68 -68 104 -31 201 -263 276 -403 129 -35 -37
-73 -116 -73 -154 0 -43 55 -148 94 -181 41 -33 95 -53 146 -53 27 0 46 -13
109 -73 42 -39 139 -118 216 -174 269 -195 344 -272 353 -363 4 -43 1 -51 -32
-88 -42 -47 -104 -75 -234 -108 -124 -32 -147 -31 -169 4 -44 72 -102 109
-181 119 -95 11 -187 -40 -235 -131 -27 -52 -28 -146 -3 -196 80 -156 267
-184 387 -58 l49 51 118 -22 c365 -67 594 -55 818 45 7 3 51 -41 99 -98 134
-157 348 -364 474 -458 l113 -85 -5 -45 c-3 -25 -14 -103 -26 -175 -56 -355
-78 -738 -62 -1077 13 -276 30 -413 75 -592 155 -611 556 -1163 1201 -1651
287 -218 525 -359 1050 -622 369 -185 527 -270 703 -377 187 -113 412 -273
507 -359 l47 -42 -50 -76 c-87 -133 -179 -312 -286 -552 l-26 -59 -62 9 c-219
29 -506 -22 -792 -143 -85 -36 -111 -41 -122 -23 -14 23 -90 49 -147 49 -137
0 -231 -93 -231 -230 0 -100 51 -179 141 -217 46 -19 140 -16 189 6 50 23 107
88 123 140 11 37 14 39 62 46 95 13 293 -12 359 -45 56 -28 75 -56 74 -106 -2
-79 -49 -139 -318 -406 -246 -243 -250 -247 -304 -259 -46 -9 -64 -20 -108
-63 -43 -44 -54 -62 -65 -110 -22 -102 20 -201 108 -253 40 -24 59 -28 119
-28 61 0 77 4 120 30 66 41 104 104 111 186 5 56 10 66 46 103 50 51 116 141
237 320 149 222 229 296 319 296 81 0 146 -94 195 -284 15 -54 26 -104 26
-112 0 -7 -19 -26 -43 -43 -182 -125 -93 -422 128 -421 137 1 234 96 235 231
0 68 -37 149 -83 180 -51 35 -55 44 -45 97 17 90 38 307 38 392 0 118 -16 252
-40 333 -12 37 -18 72 -15 78 10 15 168 119 287 188 114 67 292 151 320 151
19 0 84 -115 142 -254 49 -114 67 -240 67 -486 1 -329 -50 -560 -182 -822
-209 -415 -611 -728 -1176 -917 -363 -122 -712 -180 -953 -161 -657 53 -1317
554 -1706 1295 -189 361 -270 769 -205 1039 70 292 326 522 648 582 62 12 161
18 333 20 319 4 383 9 452 33 148 51 233 161 273 353 67 318 -96 545 -428 598
-102 17 -313 7 -430 -19 -367 -84 -735 -303 -1042 -623 -348 -361 -505 -734
-505 -1201 0 -341 83 -679 258 -1051 195 -413 538 -863 863 -1134 257 -214
630 -410 965 -506 225 -65 518 -112 759 -123 238 -11 664 59 955 156 749 251
1305 720 1620 1366 216 442 329 954 346 1565 7 234 -7 365 -61 604 -13 60 -22
113 -19 117 10 17 615 369 633 369 4 0 22 -21 39 -48 96 -148 303 -314 567
-454 l120 -63 6 -46 c10 -66 35 -114 82 -154 129 -110 334 -46 378 119 28 102
-26 217 -126 268 -49 25 -144 27 -197 4 l-37 -16 -41 43 c-114 123 -200 267
-200 338 0 112 133 146 445 115 88 -9 228 -22 310 -28 142 -11 152 -13 186
-40 133 -106 317 -44 373 125 19 56 19 58 0 113 -57 168 -240 229 -374 124
-34 -26 -40 -27 -205 -33 -93 -3 -199 -11 -235 -16 -197 -32 -384 -30 -450 4
-105 54 -86 183 56 382 l59 83 81 -7 c94 -7 140 5 190 50 106 92 107 264 2
352 -53 44 -94 57 -170 53 -82 -4 -137 -38 -183 -112 -26 -42 -30 -59 -31
-120 l0 -70 -106 -67 c-228 -143 -426 -322 -502 -452 -21 -37 -42 -70 -46 -72
-3 -2 -69 7 -146 20 -201 34 -388 49 -544 42 -74 -3 -142 -8 -150 -11 -8 -3
-21 -2 -28 2 -7 5 -39 78 -71 163 -143 377 -296 723 -480 1084 -194 380 -353
641 -508 835 -69 87 -443 465 -954 965 -157 154 -324 327 -371 385 -117 144
-279 371 -275 384 2 6 23 17 48 24 272 81 441 151 622 256 63 36 121 66 128
66 8 0 27 -26 44 -57 81 -156 344 -342 675 -476 l105 -43 12 -49 c35 -139 166
-213 307 -174 51 14 128 91 144 145 34 117 -14 231 -121 286 -57 28 -145 27
-210 -3 l-50 -24 -102 107 c-161 167 -199 266 -132 333 61 61 100 67 497 74
l355 7 35 -22 c100 -65 211 -59 292 14 110 99 105 271 -10 359 -52 40 -126 57
-189 43 -56 -13 -75 -23 -121 -64 -34 -31 -43 -34 -127 -39 -49 -3 -187 -26
-306 -50 -264 -55 -329 -63 -402 -47 -100 20 -140 86 -116 187 14 58 65 168
113 243 l35 55 84 0 c75 0 88 3 132 30 90 55 132 163 105 265 -18 68 -100 144
-172 160 -81 18 -144 1 -208 -57 -62 -56 -86 -122 -75 -212 6 -55 6 -58 -22
-76 -62 -40 -221 -174 -299 -252 -104 -102 -205 -238 -241 -322 l-27 -64 -416
6 c-263 3 -470 11 -565 21 -177 18 -294 36 -316 47 -23 12 -73 134 -104 255
-32 123 -43 304 -26 423 15 104 75 349 89 363 7 7 39 -2 100 -26 420 -168 848
-106 1252 183 117 83 256 215 283 266 12 24 37 71 55 104 49 92 65 169 59 276
-3 50 -13 112 -23 139 -15 44 -16 62 -6 170 26 272 34 480 29 691 -12 463 -87
695 -252 775 -56 27 -215 60 -290 60 -34 0 -64 -2 -66 -4z"/>
</g>
</svg>
